<svg width="46" height="75" xmlns="http://www.w3.org/2000/svg" xmlns:xlink="http://www.w3.org/1999/xlink" overflow="hidden"><defs><clipPath id="clip0"><rect x="0" y="0" width="46" height="75"/></clipPath></defs><g clip-path="url(#clip0)"><path d="M41.8765 33.9862 25.4182 70.9466 20.4186 68.7203 36.8769 31.76Z" fill="#FFFFFF"/><path d="M41.2174 34.2392 25.1652 70.2875 21.0777 68.4674 37.1299 32.419Z" stroke="#FFFFFF" stroke-width="0.998326" fill="none"/><path d="M45.9495 22.9495C45.9495 35.6242 35.6747 45.899 23 45.899 10.3253 45.899 0.0504889 35.6242 0.0504889 22.9495 0.0504889 10.2748 10.3253-3.54491e-15 23-7.08983e-15 35.6747-1.41797e-14 45.9495 10.2748 45.9495 22.9495Z" fill="#FFFFFF"/><path d="M45.4506 22.9495C45.4506 35.3486 35.3991 45.4001 23 45.4001 10.6009 45.4001 0.549391 35.3486 0.549391 22.9495 0.549391 10.5504 10.6009 0.498902 23 0.498902 35.3991 0.498902 45.4506 10.5504 45.4506 22.9495Z" stroke="#FFFFFF" stroke-width="0.997805" fill="none"/><path d="M37.9671 22.9495C37.9671 31.2156 31.2661 37.9166 23 37.9166 14.7339 37.9166 8.03293 31.2156 8.03293 22.9495 8.03293 14.6834 14.7339 7.98244 23 7.98244 31.2661 7.98244 37.9671 14.6834 37.9671 22.9495Z" fill="#212221"/><path d="M37.4682 22.9495C37.4682 30.9401 30.9906 37.4177 23 37.4177 15.0095 37.4177 8.53183 30.9401 8.53183 22.9495 8.53183 14.959 15.0095 8.48134 23 8.48134 30.9906 8.48134 37.4682 14.959 37.4682 22.9495Z" stroke="#FFFFFF" stroke-width="0.997805" fill="none"/><path d="M1.5472 27.4396 23.4989 74.3365" stroke="#FFFFFF" stroke-width="0.997805" stroke-linecap="round" fill="none"/><path d="M42.4572 30.433 23.4989 74.3365" stroke="#FFFFFF" stroke-width="0.997805" fill="none"/><path d="M13.5209 41.4089 23.4989 62.3628" stroke="#FFFFFF" stroke-width="0.997805" stroke-linecap="round" fill="none"/><path d="M33.477 41.4089 23.4989 62.3628" stroke="#FFFFFF" stroke-width="0.997805" stroke-linecap="round" fill="none"/><path d="M11.0553 35.9 26.0902 68.1426 21.4077 70.3261 6.37272 38.0835Z" fill="#FFFFFF"/><path d="M10.814 36.563 25.4272 67.9013 21.649 69.6631 7.03572 38.3248Z" stroke="#FFFFFF" stroke-width="0.997805" fill="none"/><path d="M23 64.8573 23.9978 64.8573 23.9978 72.8398 23 72.8398Z" fill="#FFFFFF"/><path d="M23 63.8595 24.9956 63.8595 24.9956 71.8419 23 71.8419Z" fill="#FFFFFF"/><path d="M23.4989 64.3584 24.4967 64.3584 24.4967 71.343 23.4989 71.343Z" stroke="#FFFFFF" stroke-width="0.997805" fill="none"/><path d="M23 65.8551 23.9978 65.8551 23.9978 73.8376 23 73.8376Z" fill="#FFFFFF"/><path d="M25.0445 71.9886 23.3163 72.9864 18.8261 65.2093 20.5544 64.2115Z" fill="#FFFFFF"/><path d="M24.363 71.806 23.4989 72.3049 19.5076 65.3919 20.3718 64.893Z" stroke="#FFFFFF" stroke-width="0.997805" fill="none"/><path d="M40.1163 37.9036 24.1072 73.8553 22.4264 73.1069 38.4355 37.1552Z" fill="#FFFFFF"/><path d="M39.4573 38.1566 23.8543 73.1963 23.0855 72.8539 38.6885 37.8142Z" stroke="#FFFFFF" stroke-width="0.998326" fill="none"/></g></svg>