<svg width="322" height="110" xmlns="http://www.w3.org/2000/svg" xmlns:xlink="http://www.w3.org/1999/xlink" overflow="hidden"><defs><clipPath id="clip0"><rect x="0" y="0" width="322" height="110"/></clipPath></defs><g clip-path="url(#clip0)"><path d="M320.27 108.5 1.73001 108.5 1.73001 1.5 320.27 1.5 320.27 108.5Z" fill="#212221"/><path d="M3.23 3 3.23 107 318.77 107 318.77 3 3.23 3M0.23 0 321.77 0 321.77 110 0.23 110 0.23 0Z" fill="#FFFFFF"/><text fill="#FFFFFF" font-family="Rockwell,Rockwell_MSFontService,sans-serif" font-weight="700" font-size="49" transform="translate(105.77 73)">Visit us</text><path d="M79.7432 32.8937 55.4492 76.5906 31.0229 33.2772 79.7432 32.8937Z" fill="#FFFFFF"/><path d="M55.4461 75.5672 78.8894 33.4004 31.8752 33.7705 55.4461 75.5672M55.4523 77.614 30.1707 32.7839 80.597 32.387 55.4523 77.614Z" fill="#FFFFFF"/></g></svg>