<svg width="322" height="110" xmlns="http://www.w3.org/2000/svg" xmlns:xlink="http://www.w3.org/1999/xlink" overflow="hidden"><defs><clipPath id="clip0"><rect x="0" y="0" width="322" height="110"/></clipPath></defs><g clip-path="url(#clip0)"><path d="M320.27 108.5 1.73001 108.5 1.73001 1.5 320.27 1.5 320.27 108.5Z" fill="#212221"/><path d="M3.23 3 3.23 107 318.77 107 318.77 3 3.23 3M0.23 0 321.77 0 321.77 110 0.23 110 0.23 0Z" fill="#FFFFFF"/><text fill="#FFFFFF" font-family="Rockwell,Rockwell_MSFontService,sans-serif" font-weight="700" font-size="49" transform="translate(105.77 73)">Visit us</text><path d="M38.2767 30.6408 81.9736 54.9348 38.6602 79.3611 38.2767 30.6408Z" fill="#FFFFFF"/><path d="M80.9502 54.9379 38.7834 31.4946 39.1535 78.5088 80.9502 54.9379M82.997 54.9317 38.1669 80.2133 37.77 29.787 82.997 54.9317Z" fill="#FFFFFF"/></g></svg>